Coordinates
version=1
nRows=10
nColumns=40
inDegrees=yes

Units are S.I. units (second, meters, Newtons, ...)
If the header above contains a line with 'inDegrees', this indicates whether rotational values are in degrees (yes) or radians (no).

endheader
time	pelvis_tilt	pelvis_list	pelvis_rotation	pelvis_tx	pelvis_ty	pelvis_tz	hip_flexion_r	hip_adduction_r	hip_rotation_r	knee_angle_r	knee_angle_r_beta	ankle_angle_r	subtalar_angle_r	mtp_angle_r	hip_flexion_l	hip_adduction_l	hip_rotation_l	knee_angle_l	knee_angle_l_beta	ankle_angle_l	subtalar_angle_l	mtp_angle_l	lumbar_extension	lumbar_bending	lumbar_rotation	arm_flex_r	arm_add_r	arm_rot_r	elbow_flex_r	pro_sup_r	wrist_flex_r	wrist_dev_r	arm_flex_l	arm_add_l	arm_rot_l	elbow_flex_l	pro_sup_l	wrist_flex_l	wrist_dev_l
      9.30000000	      8.41830427	      3.27884714	    177.56280318	      0.28018672	      0.75767538	     -0.92194220	     49.74597415	    -32.17434205	    -16.34082206	     48.48109255	      0.84615469	     -0.45674586	      0.00000000	      0.00000000	     49.94821982	    -45.80943924	    -17.58186401	     50.18637408	      0.87591747	     -2.45989611	      0.00000000	      0.00000000	    -82.67669447	      0.88624492	      4.63453005	     68.44681590	      1.24705237	     -1.51886172	      5.79403361	     17.43551977	      0.00000000	      0.00000000	     73.91336265	     -6.33690567	     69.11575453	      7.56950845	     83.18360408	      0.00000000	      0.00000000
      9.30500000	      8.26225966	      3.32412206	    178.04550940	      0.28026949	      0.75915950	     -0.92130446	     49.06100793	    -32.54643994	    -17.16973966	     48.15850640	      0.84052450	     -0.56576948	      0.00000000	      0.00000000	     49.58065107	    -44.98641066	    -16.74720249	     49.21464966	      0.85895768	     -2.13646528	      0.00000000	      0.00000000	    -82.99002203	      1.32234334	      4.57198303	     68.72626176	      1.35796147	     -1.78567274	      6.07204086	     16.42279215	      0.00000000	      0.00000000	     74.16937913	     -6.66679719	     69.36327978	      8.01841907	     84.61251988	      0.00000000	      0.00000000
      9.31000000	      8.50786244	      3.42507745	    178.09147350	      0.28048343	      0.75944071	     -0.92110433	     49.09421734	    -32.46672734	    -17.40689230	     47.90920195	      0.83617332	     -0.70837167	      0.00000000	      0.00000000	     49.87755033	    -44.93396196	    -16.56339841	     49.05438734	      0.85616057	     -2.19384660	      0.00000000	      0.00000000	    -82.86043969	      1.38695350	      4.70531187	     68.68126737	      1.24088665	     -1.56729157	      6.04408447	     17.62797007	      0.00000000	      0.00000000	     74.26287135	     -6.61926382	     69.60750126	      7.99199851	     84.70809856	      0.00000000	      0.00000000
      9.31500000	      8.56416579	      3.38660455	    178.03066161	      0.28044603	      0.76025245	     -0.92105877	     49.00172072	    -32.42503148	    -17.52854732	     47.61874306	      0.83110385	     -0.88648164	      0.00000000	      0.00000000	     49.65969388	    -44.90879144	    -16.83665636	     48.82236872	      0.85211108	     -2.19047531	      0.00000000	      0.00000000	    -82.92956041	      1.30045198	      4.72515325	     68.84148381	      1.18867649	     -1.82491500	      5.93444608	     18.12273081	      0.00000000	      0.00000000	     74.37376907	     -6.57875803	     69.94367959	      7.98218232	     84.43349221	      0.00000000	      0.00000000
      9.32000000	      8.92638254	      3.57349368	    178.17091512	      0.28082362	      0.76011047	     -0.92056443	     49.09943553	    -32.36324389	    -17.87614582	     47.39788964	      0.82724923	     -0.99805294	      0.00000000	      0.00000000	     50.32136993	    -44.81920897	    -16.32880998	     48.74162531	      0.85070184	     -2.29723999	      0.00000000	      0.00000000	    -82.65657036	      1.51129534	      4.96590234	     68.73798079	      0.97971408	     -1.08013917	      5.79481807	     19.81545350	      0.00000000	      0.00000000	     74.40801273	     -6.47170198	     69.68833117	      7.95520391	     84.59425696	      0.00000000	      0.00000000
      9.32500000	      9.18284717	      3.76898787	    178.21089073	      0.28094446	      0.76052503	     -0.92025818	     49.03196305	    -32.18879888	    -18.21960412	     47.06551044	      0.82144812	     -1.09388578	      0.00000000	      0.00000000	     50.66621187	    -44.81616816	    -16.05117704	     48.50283122	      0.84653410	     -2.53016933	      0.00000000	      0.00000000	    -82.53244558	      1.62505933	      5.21280467	     68.72361624	      0.78232802	     -0.53911737	      5.49214105	     21.87059983	      0.00000000	      0.00000000	     74.43397092	     -6.26430447	     69.04766357	      7.73313431	     84.13903561	      0.00000000	      0.00000000
      9.33000000	      9.07945448	      3.43055011	    178.00538181	      0.28075294	      0.76180236	     -0.92073668	     49.02266630	    -32.26814865	    -17.98961418	     46.82509252	      0.81725204	     -1.32975684	      0.00000000	      0.00000000	     49.80364139	    -44.72788679	    -17.00257195	     48.20554873	      0.84134554	     -2.47822291	      0.00000000	      0.00000000	    -82.76257221	      1.27093986	      4.93392652	     68.96395236	      0.87950947	     -1.40391246	      5.69805658	     21.00923570	      0.00000000	      0.00000000	     74.65900974	     -6.39771844	     69.83719607	      7.87427081	     84.78071331	      0.00000000	      0.00000000
      9.33500000	      9.37052984	      3.56195956	    178.15319068	      0.28095579	      0.76199712	     -0.92024157	     49.01472704	    -32.26993764	    -18.37486046	     46.56061924	      0.81263611	     -1.58835471	      0.00000000	      0.00000000	     50.27268449	    -44.58604077	    -16.58832352	     48.04227136	      0.83849582	     -2.67603728	      0.00000000	      0.00000000	    -82.57066706	      1.48008978	      5.10731260	     69.14197781	      0.86443849	     -1.57176609	      6.03726383	     18.04660023	      0.00000000	      0.00000000	     74.70938739	     -6.27905544	     69.66686195	      7.77288805	     84.74350277	      0.00000000	      0.00000000
      9.34000000	      9.62863217	      3.77739212	    178.28304450	      0.28110332	      0.76227209	     -0.91961598	     48.90585356	    -32.18527979	    -18.84328122	     46.24521868	      0.80713133	     -1.76064662	      0.00000000	      0.00000000	     50.74716230	    -44.54418855	    -16.21511796	     47.94958736	      0.83687817	     -2.55857380	      0.00000000	      0.00000000	    -82.42751263	      1.70621429	      5.36126802	     69.09777417	      0.68223921	     -1.10886310	      5.94536245	     19.55556015	      0.00000000	      0.00000000	     74.72132837	     -6.22197314	     69.11681519	      7.84246193	     84.93872302	      0.00000000	      0.00000000
      9.34500000	      9.62494751	      3.47265267	    178.05584790	      0.28096855	      0.76357271	     -0.92012481	     48.96684206	    -32.17525183	    -18.58501620	     45.94192925	      0.80183793	     -1.85130548	      0.00000000	      0.00000000	     49.99848904	    -44.49947794	    -17.17727967	     47.55760048	      0.83003671	     -2.91052739	      0.00000000	      0.00000000	    -82.56990762	      1.35218712	      5.13917526	     69.34144801	      0.72191589	     -1.44209015	      6.15286149	     17.35971702	      0.00000000	      0.00000000	     74.92274264	     -6.23409362	     69.75047741	      7.84089308	     84.67961474	      0.00000000	      0.00000000
